<svg width="46" height="33" viewBox="0 0 46 33" fill="none" xmlns="http://www.w3.org/2000/svg">
<path d="M22.86 2L8.63 12.42V21.07L22.86 31.49C22.83 9.26 22.86 20.17 22.86 2Z" fill="#B3B3B3"/>
<path d="M5 23.9198H12.47V9.55981H5V23.9198Z" fill="#B3B3B3"/>
<path d="M32 31.1399C31.6559 31.1407 31.3193 31.0395 31.0328 30.849C30.7462 30.6586 30.5225 30.3874 30.39 30.0699C30.2993 29.8572 30.2514 29.6286 30.249 29.3974C30.2467 29.1661 30.2899 28.9367 30.3763 28.7221C30.4627 28.5076 30.5905 28.3122 30.7524 28.1471C30.9143 27.982 31.1072 27.8504 31.32 27.7599C32.7344 27.1603 34.0184 26.2907 35.1 25.1999C37.3328 22.9541 38.5873 19.9167 38.59 16.7499C38.5793 13.5788 37.3138 10.5408 35.07 8.29988C33.9863 7.20894 32.7031 6.33644 31.29 5.72988C30.8627 5.547 30.5251 5.20251 30.3509 4.7716C30.1766 4.3407 30.1799 3.85837 30.36 3.42988C30.4463 3.21604 30.5746 3.02173 30.7375 2.8585C30.9003 2.69526 31.0943 2.56643 31.308 2.47967C31.5216 2.39291 31.7505 2.35 31.9811 2.35347C32.2116 2.35694 32.4391 2.40673 32.65 2.49988C36.3419 4.07523 39.2782 7.02222 40.84 10.7199C41.6452 12.6177 42.0601 14.6583 42.06 16.7199C42.059 18.7804 41.6477 20.82 40.85 22.7199C40.077 24.5565 38.9526 26.2244 37.54 27.6299C36.1475 29.0638 34.4858 30.209 32.65 30.9999C32.4453 31.0907 32.224 31.1384 32 31.1399Z" fill="#B3B3B3"/>
<path d="M28.69 24.0801C28.3094 24.0796 27.9406 23.9476 27.6462 23.7064C27.3518 23.4652 27.1499 23.1297 27.0746 22.7566C26.9992 22.3835 27.0551 21.9959 27.2329 21.6594C27.4106 21.3229 27.6993 21.0581 28.0499 20.9101C28.8655 20.5635 29.5605 19.9838 30.048 19.2438C30.5354 18.5037 30.7936 17.6362 30.79 16.7501C30.7935 16.149 30.6744 15.5535 30.44 15.0001C30.2031 14.4627 29.8634 13.9769 29.44 13.5701C29.0312 13.1489 28.5458 12.8095 28.01 12.5701C27.6564 12.3727 27.3883 12.0515 27.2574 11.6682C27.1264 11.285 27.1418 10.8669 27.3008 10.4944C27.4597 10.122 27.7508 9.82146 28.118 9.6508C28.4853 9.48013 28.9028 9.45138 29.29 9.57008C30.4625 10.0719 31.495 10.8522 32.2977 11.8433C33.1005 12.8344 33.6493 14.0064 33.8966 15.2577C34.1439 16.5089 34.0822 17.8016 33.7168 19.0235C33.3515 20.2455 32.6934 21.3599 31.7999 22.2701C31.0941 22.9834 30.2548 23.5508 29.3299 23.9401C29.1281 24.0293 28.9106 24.0769 28.69 24.0801Z" fill="#B3B3B3"/>
<path d="M2 2L44 31" stroke="#B3B3B3" stroke-width="3" stroke-linecap="round"/>
<path d="M2 2L44 31" stroke="white" stroke-width="3" stroke-linecap="round"/>
</svg>
